<mxfile host="app.diagrams.net" modified="2024-03-22T09:35:39.826Z" agent="Mozilla/5.0 (Windows NT 10.0; Win64; x64) AppleWebKit/537.36 (KHTML, like Gecko) Chrome/123.0.0.0 Safari/537.36" etag="gapjMY2-VGCBlTAy2iXo" version="24.0.0" type="device">
  <diagram name="UML-диаграмма" id="Yqvl6sYoLs1Biy8anvar">
    <mxGraphModel dx="1434" dy="780" grid="1" gridSize="10" guides="1" tooltips="1" connect="1" arrows="1" fold="1" page="1" pageScale="1" pageWidth="827" pageHeight="1169" math="0" shadow="0">
      <root>
        <mxCell id="0" />
        <mxCell id="1" parent="0" />
        <mxCell id="nny80SySV4NmRq8y1aAM-1" value="Клиент" style="shape=umlActor;verticalLabelPosition=bottom;verticalAlign=top;html=1;" parent="1" vertex="1">
          <mxGeometry x="120" y="90" width="30" height="60" as="geometry" />
        </mxCell>
        <mxCell id="nny80SySV4NmRq8y1aAM-2" value="Менеджер" style="shape=umlActor;verticalLabelPosition=bottom;verticalAlign=top;html=1;" parent="1" vertex="1">
          <mxGeometry x="80" y="530" width="30" height="60" as="geometry" />
        </mxCell>
        <mxCell id="nny80SySV4NmRq8y1aAM-3" value="&lt;span style=&quot;line-height: 115%;&quot;&gt;&lt;font style=&quot;font-size: 12px;&quot;&gt;Сотрудник по работе&amp;nbsp;&lt;/font&gt;&lt;/span&gt;&lt;div&gt;&lt;span style=&quot;line-height: 115%;&quot;&gt;&lt;font style=&quot;font-size: 12px;&quot;&gt;с договорами об&amp;nbsp;&lt;/font&gt;&lt;/span&gt;&lt;/div&gt;&lt;div&gt;&lt;span style=&quot;line-height: 115%;&quot;&gt;&lt;font style=&quot;font-size: 12px;&quot;&gt;оказании платных&lt;br&gt;услуг&lt;/font&gt;&lt;/span&gt;&lt;/div&gt;" style="shape=umlActor;verticalLabelPosition=bottom;verticalAlign=top;html=1;" parent="1" vertex="1">
          <mxGeometry x="980" y="80" width="30" height="60" as="geometry" />
        </mxCell>
        <mxCell id="nny80SySV4NmRq8y1aAM-4" value="Специалист по&lt;div&gt;персоналу&lt;/div&gt;" style="shape=umlActor;verticalLabelPosition=bottom;verticalAlign=top;html=1;" parent="1" vertex="1">
          <mxGeometry x="990" y="330" width="30" height="60" as="geometry" />
        </mxCell>
        <mxCell id="nny80SySV4NmRq8y1aAM-5" value="Сотрудник по работе&lt;div&gt;с абонементами&lt;/div&gt;" style="shape=umlActor;verticalLabelPosition=bottom;verticalAlign=top;html=1;" parent="1" vertex="1">
          <mxGeometry x="1010" y="590" width="30" height="60" as="geometry" />
        </mxCell>
        <mxCell id="nny80SySV4NmRq8y1aAM-6" value="Бассейн" style="shape=umlFrame;whiteSpace=wrap;html=1;pointerEvents=0;" parent="1" vertex="1">
          <mxGeometry x="180" y="20" width="740" height="740" as="geometry" />
        </mxCell>
        <mxCell id="nny80SySV4NmRq8y1aAM-7" value="&lt;span style=&quot;font-size: 15px; line-height: 115%;&quot;&gt;Просматривает&lt;br style=&quot;font-size: 15px;&quot;&gt;статус оплаты&lt;/span&gt;" style="ellipse;whiteSpace=wrap;html=1;fontSize=15;" parent="1" vertex="1">
          <mxGeometry x="260" y="75" width="140" height="70" as="geometry" />
        </mxCell>
        <mxCell id="nny80SySV4NmRq8y1aAM-12" value="" style="endArrow=none;html=1;rounded=0;entryX=0;entryY=0.5;entryDx=0;entryDy=0;" parent="1" target="nny80SySV4NmRq8y1aAM-7" edge="1">
          <mxGeometry width="50" height="50" relative="1" as="geometry">
            <mxPoint x="160" y="110" as="sourcePoint" />
            <mxPoint x="260" y="130" as="targetPoint" />
          </mxGeometry>
        </mxCell>
        <mxCell id="nny80SySV4NmRq8y1aAM-13" value="&lt;span style=&quot;font-size:13.0pt;line-height:115%;&lt;br/&gt;font-family:&amp;quot;Times New Roman&amp;quot;,&amp;quot;serif&amp;quot;;mso-fareast-font-family:Calibri;&lt;br/&gt;mso-ansi-language:RU;mso-fareast-language:RU;mso-bidi-language:AR-SA&quot;&gt;Отправляет&lt;br/&gt;свои данные&lt;/span&gt;" style="ellipse;whiteSpace=wrap;html=1;fontSize=15;" parent="1" vertex="1">
          <mxGeometry x="240" y="160" width="140" height="70" as="geometry" />
        </mxCell>
        <mxCell id="nny80SySV4NmRq8y1aAM-14" value="&lt;span style=&quot;font-size:13.0pt;line-height:115%;&lt;br/&gt;font-family:&amp;quot;Times New Roman&amp;quot;,&amp;quot;serif&amp;quot;;mso-fareast-font-family:Calibri;&lt;br/&gt;mso-ansi-language:RU;mso-fareast-language:RU;mso-bidi-language:AR-SA&quot;&gt;Получает&lt;br/&gt;уведомления об оплате&lt;/span&gt;" style="ellipse;whiteSpace=wrap;html=1;fontSize=15;" parent="1" vertex="1">
          <mxGeometry x="220" y="250" width="140" height="70" as="geometry" />
        </mxCell>
        <mxCell id="nny80SySV4NmRq8y1aAM-16" value="" style="endArrow=none;html=1;rounded=0;entryX=0;entryY=0.5;entryDx=0;entryDy=0;" parent="1" target="nny80SySV4NmRq8y1aAM-13" edge="1">
          <mxGeometry width="50" height="50" relative="1" as="geometry">
            <mxPoint x="160" y="130" as="sourcePoint" />
            <mxPoint x="270" y="120" as="targetPoint" />
          </mxGeometry>
        </mxCell>
        <mxCell id="nny80SySV4NmRq8y1aAM-17" value="" style="endArrow=none;html=1;rounded=0;entryX=0;entryY=0.5;entryDx=0;entryDy=0;" parent="1" target="nny80SySV4NmRq8y1aAM-14" edge="1">
          <mxGeometry width="50" height="50" relative="1" as="geometry">
            <mxPoint x="160" y="170" as="sourcePoint" />
            <mxPoint x="280" y="130" as="targetPoint" />
          </mxGeometry>
        </mxCell>
        <mxCell id="nny80SySV4NmRq8y1aAM-18" value="&lt;span style=&quot;font-size:13.0pt;line-height:115%;&lt;br/&gt;font-family:&amp;quot;Times New Roman&amp;quot;,&amp;quot;serif&amp;quot;;mso-fareast-font-family:Calibri;&lt;br/&gt;mso-ansi-language:RU;mso-fareast-language:RU;mso-bidi-language:AR-SA&quot;&gt;Работает&lt;br/&gt;с данными расписания&lt;/span&gt;" style="ellipse;whiteSpace=wrap;html=1;fontSize=15;" parent="1" vertex="1">
          <mxGeometry x="200" y="360" width="140" height="70" as="geometry" />
        </mxCell>
        <mxCell id="nny80SySV4NmRq8y1aAM-19" value="&lt;span style=&quot;font-size: 13px; line-height: 115%;&quot;&gt;Получает&lt;br style=&quot;font-size: 13px;&quot;&gt;данные о свободном времени для посещения&lt;/span&gt;" style="ellipse;whiteSpace=wrap;html=1;fontSize=13;" parent="1" vertex="1">
          <mxGeometry x="210" y="460" width="140" height="70" as="geometry" />
        </mxCell>
        <mxCell id="nny80SySV4NmRq8y1aAM-20" value="&lt;span style=&quot;font-size: 14px; line-height: 115%;&quot;&gt;Ищет&lt;br style=&quot;font-size: 14px;&quot;&gt;данные об оплате и клиенте&lt;/span&gt;" style="ellipse;whiteSpace=wrap;html=1;fontSize=14;" parent="1" vertex="1">
          <mxGeometry x="210" y="570" width="140" height="70" as="geometry" />
        </mxCell>
        <mxCell id="nny80SySV4NmRq8y1aAM-21" value="&lt;span style=&quot;font-size: 12px; line-height: 115%;&quot;&gt;Создаёт/редактирует&lt;br style=&quot;font-size: 12px;&quot;&gt;отчеты об оплате, посещении&lt;/span&gt;" style="ellipse;whiteSpace=wrap;html=1;fontSize=12;" parent="1" vertex="1">
          <mxGeometry x="210" y="680" width="140" height="70" as="geometry" />
        </mxCell>
        <mxCell id="nny80SySV4NmRq8y1aAM-22" value="" style="endArrow=none;html=1;rounded=0;entryX=0;entryY=0.5;entryDx=0;entryDy=0;" parent="1" target="nny80SySV4NmRq8y1aAM-18" edge="1">
          <mxGeometry width="50" height="50" relative="1" as="geometry">
            <mxPoint x="120" y="550" as="sourcePoint" />
            <mxPoint x="170" y="500" as="targetPoint" />
          </mxGeometry>
        </mxCell>
        <mxCell id="nny80SySV4NmRq8y1aAM-23" value="" style="endArrow=none;html=1;rounded=0;entryX=0;entryY=0.5;entryDx=0;entryDy=0;" parent="1" target="nny80SySV4NmRq8y1aAM-19" edge="1">
          <mxGeometry width="50" height="50" relative="1" as="geometry">
            <mxPoint x="130" y="560" as="sourcePoint" />
            <mxPoint x="210" y="405" as="targetPoint" />
          </mxGeometry>
        </mxCell>
        <mxCell id="nny80SySV4NmRq8y1aAM-24" value="" style="endArrow=none;html=1;rounded=0;entryX=0;entryY=0.5;entryDx=0;entryDy=0;" parent="1" target="nny80SySV4NmRq8y1aAM-20" edge="1">
          <mxGeometry width="50" height="50" relative="1" as="geometry">
            <mxPoint x="130" y="580" as="sourcePoint" />
            <mxPoint x="220" y="415" as="targetPoint" />
          </mxGeometry>
        </mxCell>
        <mxCell id="nny80SySV4NmRq8y1aAM-25" value="" style="endArrow=none;html=1;rounded=0;entryX=0;entryY=0.5;entryDx=0;entryDy=0;" parent="1" target="nny80SySV4NmRq8y1aAM-21" edge="1">
          <mxGeometry width="50" height="50" relative="1" as="geometry">
            <mxPoint x="130" y="610" as="sourcePoint" />
            <mxPoint x="230" y="425" as="targetPoint" />
          </mxGeometry>
        </mxCell>
        <mxCell id="nny80SySV4NmRq8y1aAM-26" value="&lt;span style=&quot;font-size: 14px; line-height: 115%;&quot;&gt;Работает с&lt;br style=&quot;font-size: 14px;&quot;&gt;данными тренеров, бассейна&lt;/span&gt;" style="ellipse;whiteSpace=wrap;html=1;fontSize=14;" parent="1" vertex="1">
          <mxGeometry x="750" y="325" width="140" height="70" as="geometry" />
        </mxCell>
        <mxCell id="nny80SySV4NmRq8y1aAM-27" value="&lt;span style=&quot;font-size: 14px; line-height: 115%;&quot;&gt;Просматривает&lt;br style=&quot;font-size: 14px;&quot;&gt;данные о количестве групп&lt;/span&gt;" style="ellipse;whiteSpace=wrap;html=1;fontSize=14;" parent="1" vertex="1">
          <mxGeometry x="750" y="425" width="140" height="70" as="geometry" />
        </mxCell>
        <mxCell id="nny80SySV4NmRq8y1aAM-28" value="&lt;span style=&quot;font-size:13.0pt;line-height:115%;&lt;br/&gt;font-family:&amp;quot;Times New Roman&amp;quot;,&amp;quot;serif&amp;quot;;mso-fareast-font-family:Calibri;&lt;br/&gt;mso-ansi-language:RU;mso-fareast-language:RU;mso-bidi-language:AR-SA&quot;&gt;Ищет&lt;br/&gt;профиль клиента&lt;/span&gt;" style="ellipse;whiteSpace=wrap;html=1;fontSize=15;" parent="1" vertex="1">
          <mxGeometry x="760" y="530" width="140" height="70" as="geometry" />
        </mxCell>
        <mxCell id="nny80SySV4NmRq8y1aAM-29" value="&lt;span style=&quot;font-size: 14px; line-height: 115%;&quot;&gt;Оформляет/редактирует&lt;br style=&quot;font-size: 14px;&quot;&gt;договор&lt;/span&gt;" style="ellipse;whiteSpace=wrap;html=1;fontSize=14;" parent="1" vertex="1">
          <mxGeometry x="760" y="665" width="140" height="70" as="geometry" />
        </mxCell>
        <mxCell id="nny80SySV4NmRq8y1aAM-30" value="&lt;span style=&quot;font-size:13.0pt;line-height:115%;&lt;br/&gt;font-family:&amp;quot;Times New Roman&amp;quot;,&amp;quot;serif&amp;quot;;mso-fareast-font-family:Calibri;&lt;br/&gt;mso-ansi-language:RU;mso-fareast-language:RU;mso-bidi-language:AR-SA&quot;&gt;Работает&lt;br/&gt;со справкой клиента&lt;/span&gt;" style="ellipse;whiteSpace=wrap;html=1;fontSize=15;" parent="1" vertex="1">
          <mxGeometry x="760" y="45" width="140" height="70" as="geometry" />
        </mxCell>
        <mxCell id="nny80SySV4NmRq8y1aAM-31" value="&lt;span style=&quot;font-size: 13px; line-height: 115%;&quot;&gt;Работает&amp;nbsp; с данными о клиенте&lt;/span&gt;" style="ellipse;whiteSpace=wrap;html=1;fontSize=13;" parent="1" vertex="1">
          <mxGeometry x="760" y="135" width="140" height="70" as="geometry" />
        </mxCell>
        <mxCell id="nny80SySV4NmRq8y1aAM-32" value="&lt;span style=&quot;font-size:13.0pt;line-height:115%;&lt;br/&gt;font-family:&amp;quot;Times New Roman&amp;quot;,&amp;quot;serif&amp;quot;;mso-fareast-font-family:Calibri;&lt;br/&gt;mso-ansi-language:RU;mso-fareast-language:RU;mso-bidi-language:AR-SA&quot;&gt;Работает&lt;br/&gt;с договором&lt;/span&gt;" style="ellipse;whiteSpace=wrap;html=1;fontSize=15;" parent="1" vertex="1">
          <mxGeometry x="750" y="215" width="140" height="70" as="geometry" />
        </mxCell>
        <mxCell id="nny80SySV4NmRq8y1aAM-33" value="" style="endArrow=none;html=1;rounded=0;exitX=1;exitY=0.5;exitDx=0;exitDy=0;" parent="1" source="nny80SySV4NmRq8y1aAM-28" edge="1">
          <mxGeometry width="50" height="50" relative="1" as="geometry">
            <mxPoint x="950" y="585" as="sourcePoint" />
            <mxPoint x="990" y="610" as="targetPoint" />
          </mxGeometry>
        </mxCell>
        <mxCell id="nny80SySV4NmRq8y1aAM-34" value="" style="endArrow=none;html=1;rounded=0;exitX=1;exitY=0.5;exitDx=0;exitDy=0;" parent="1" source="nny80SySV4NmRq8y1aAM-29" edge="1">
          <mxGeometry width="50" height="50" relative="1" as="geometry">
            <mxPoint x="900" y="600" as="sourcePoint" />
            <mxPoint x="970" y="675" as="targetPoint" />
          </mxGeometry>
        </mxCell>
        <mxCell id="nny80SySV4NmRq8y1aAM-35" value="" style="endArrow=none;html=1;rounded=0;exitX=1;exitY=0.5;exitDx=0;exitDy=0;" parent="1" source="nny80SySV4NmRq8y1aAM-27" edge="1">
          <mxGeometry width="50" height="50" relative="1" as="geometry">
            <mxPoint x="910" y="610" as="sourcePoint" />
            <mxPoint x="960" y="435" as="targetPoint" />
          </mxGeometry>
        </mxCell>
        <mxCell id="nny80SySV4NmRq8y1aAM-36" value="" style="endArrow=none;html=1;rounded=0;exitX=1;exitY=0.5;exitDx=0;exitDy=0;" parent="1" source="nny80SySV4NmRq8y1aAM-26" edge="1">
          <mxGeometry width="50" height="50" relative="1" as="geometry">
            <mxPoint x="900" y="470" as="sourcePoint" />
            <mxPoint x="970" y="375" as="targetPoint" />
          </mxGeometry>
        </mxCell>
        <mxCell id="nny80SySV4NmRq8y1aAM-37" value="" style="endArrow=none;html=1;rounded=0;exitX=1;exitY=0.5;exitDx=0;exitDy=0;" parent="1" source="nny80SySV4NmRq8y1aAM-32" edge="1">
          <mxGeometry width="50" height="50" relative="1" as="geometry">
            <mxPoint x="930" y="242.5" as="sourcePoint" />
            <mxPoint x="950" y="215" as="targetPoint" />
          </mxGeometry>
        </mxCell>
        <mxCell id="nny80SySV4NmRq8y1aAM-38" value="" style="endArrow=none;html=1;rounded=0;exitX=1;exitY=0.5;exitDx=0;exitDy=0;" parent="1" source="nny80SySV4NmRq8y1aAM-30" edge="1">
          <mxGeometry width="50" height="50" relative="1" as="geometry">
            <mxPoint x="910" y="380" as="sourcePoint" />
            <mxPoint x="960" y="95" as="targetPoint" />
          </mxGeometry>
        </mxCell>
        <mxCell id="nny80SySV4NmRq8y1aAM-39" value="" style="endArrow=none;html=1;rounded=0;exitX=1;exitY=0.5;exitDx=0;exitDy=0;" parent="1" source="nny80SySV4NmRq8y1aAM-31" edge="1">
          <mxGeometry width="50" height="50" relative="1" as="geometry">
            <mxPoint x="910" y="90" as="sourcePoint" />
            <mxPoint x="950" y="135" as="targetPoint" />
          </mxGeometry>
        </mxCell>
        <mxCell id="nny80SySV4NmRq8y1aAM-41" value="&lt;span style=&quot;font-size: 13px;&quot;&gt;Создать отчет об оплате, посещении&lt;/span&gt;" style="ellipse;whiteSpace=wrap;html=1;fontSize=13;" parent="1" vertex="1">
          <mxGeometry x="400" y="590" width="130" height="70" as="geometry" />
        </mxCell>
        <mxCell id="nny80SySV4NmRq8y1aAM-42" value="&lt;span style=&quot;font-size: 13px;&quot;&gt;Редактировать отчет об оплате, посещении&lt;/span&gt;" style="ellipse;whiteSpace=wrap;html=1;fontSize=13;" parent="1" vertex="1">
          <mxGeometry x="490" y="670" width="140" height="70" as="geometry" />
        </mxCell>
        <mxCell id="nny80SySV4NmRq8y1aAM-43" value="extend" style="endArrow=open;endSize=12;dashed=1;html=1;rounded=0;exitX=0;exitY=1;exitDx=0;exitDy=0;entryX=1;entryY=0;entryDx=0;entryDy=0;" parent="1" source="nny80SySV4NmRq8y1aAM-41" target="nny80SySV4NmRq8y1aAM-21" edge="1">
          <mxGeometry x="0.0566" y="-13" width="160" relative="1" as="geometry">
            <mxPoint x="360" y="540" as="sourcePoint" />
            <mxPoint x="530" y="510" as="targetPoint" />
            <mxPoint as="offset" />
          </mxGeometry>
        </mxCell>
        <mxCell id="nny80SySV4NmRq8y1aAM-44" value="extend" style="endArrow=open;endSize=12;dashed=1;html=1;rounded=0;exitX=0;exitY=0.5;exitDx=0;exitDy=0;entryX=1;entryY=0.5;entryDx=0;entryDy=0;" parent="1" source="nny80SySV4NmRq8y1aAM-42" target="nny80SySV4NmRq8y1aAM-21" edge="1">
          <mxGeometry x="0.0566" y="-13" width="160" relative="1" as="geometry">
            <mxPoint x="399" y="660" as="sourcePoint" />
            <mxPoint x="339" y="700" as="targetPoint" />
            <mxPoint as="offset" />
          </mxGeometry>
        </mxCell>
        <mxCell id="nny80SySV4NmRq8y1aAM-45" value="include" style="endArrow=open;endSize=12;dashed=1;html=1;rounded=0;exitX=0;exitY=0.5;exitDx=0;exitDy=0;entryX=1;entryY=0.5;entryDx=0;entryDy=0;" parent="1" source="nny80SySV4NmRq8y1aAM-26" target="nny80SySV4NmRq8y1aAM-19" edge="1">
          <mxGeometry x="-0.0369" y="11" width="160" relative="1" as="geometry">
            <mxPoint x="390" y="205" as="sourcePoint" />
            <mxPoint x="770" y="180" as="targetPoint" />
            <mxPoint as="offset" />
          </mxGeometry>
        </mxCell>
        <mxCell id="nny80SySV4NmRq8y1aAM-47" value="&lt;span style=&quot;font-size: 13px;&quot;&gt;Создать договор&lt;/span&gt;" style="ellipse;whiteSpace=wrap;html=1;fontSize=13;" parent="1" vertex="1">
          <mxGeometry x="580" y="460" width="130" height="70" as="geometry" />
        </mxCell>
        <mxCell id="nny80SySV4NmRq8y1aAM-48" value="&lt;span style=&quot;font-size: 13px;&quot;&gt;Редактировать договор&lt;/span&gt;" style="ellipse;whiteSpace=wrap;html=1;fontSize=13;" parent="1" vertex="1">
          <mxGeometry x="550" y="570" width="140" height="70" as="geometry" />
        </mxCell>
        <mxCell id="nny80SySV4NmRq8y1aAM-49" value="extend" style="endArrow=open;endSize=12;dashed=1;html=1;rounded=0;exitX=1;exitY=0.5;exitDx=0;exitDy=0;entryX=0;entryY=0.5;entryDx=0;entryDy=0;" parent="1" source="nny80SySV4NmRq8y1aAM-48" target="nny80SySV4NmRq8y1aAM-29" edge="1">
          <mxGeometry x="0.0566" y="-13" width="160" relative="1" as="geometry">
            <mxPoint x="760" y="660" as="sourcePoint" />
            <mxPoint x="620" y="670" as="targetPoint" />
            <mxPoint as="offset" />
          </mxGeometry>
        </mxCell>
        <mxCell id="nny80SySV4NmRq8y1aAM-50" value="extend" style="endArrow=open;endSize=12;dashed=1;html=1;rounded=0;exitX=1;exitY=0.5;exitDx=0;exitDy=0;entryX=0;entryY=0;entryDx=0;entryDy=0;" parent="1" source="nny80SySV4NmRq8y1aAM-47" target="nny80SySV4NmRq8y1aAM-29" edge="1">
          <mxGeometry x="-0.4707" y="-20" width="160" relative="1" as="geometry">
            <mxPoint x="700" y="615" as="sourcePoint" />
            <mxPoint x="770" y="710" as="targetPoint" />
            <mxPoint as="offset" />
          </mxGeometry>
        </mxCell>
      </root>
    </mxGraphModel>
  </diagram>
</mxfile>
